<svg version="1.0" xmlns="http://www.w3.org/2000/svg"
 width="683.000000pt" height="683.000000pt" viewBox="0 0 683.000000 683.000000"
 preserveAspectRatio="xMidYMid meet">
<g transform="translate(0.000000,683.000000) scale(0.100000,-0.100000)"
fill="#2B8BE1" stroke="none">
<path d="M5075 6423 c-16 -2 -37 -7 -45 -10 -8 -3 -25 -5 -38 -4 -46 5 -123
-20 -132 -43 -5 -11 -9 -15 -9 -9 -1 9 -8 10 -26 3 -18 -7 -25 -6 -25 3 0 8
-4 7 -10 -3 -5 -8 -12 -12 -15 -8 -9 9 -65 -12 -65 -24 0 -5 -3 -7 -8 -4 -4 2
-23 -2 -42 -10 -19 -9 -36 -15 -37 -15 -6 1 -159 -83 -168 -92 -7 -7 -5 -7 4
-2 9 5 12 4 7 -3 -4 -6 -12 -9 -19 -6 -17 6 -100 -54 -92 -67 4 -5 3 -9 -2 -8
-21 4 -44 -2 -39 -10 3 -5 -6 -12 -19 -15 -14 -4 -23 -10 -21 -15 3 -5 -3 -11
-13 -14 -11 -3 -22 -17 -26 -36 -4 -17 -11 -31 -16 -31 -6 0 -8 -4 -5 -8 3 -5
-1 -9 -9 -9 -8 0 -14 3 -13 6 2 19 -5 17 -27 -5 -27 -27 -33 -40 -12 -28 6 4
3 -3 -8 -16 -12 -14 -14 -20 -5 -15 12 7 13 6 2 -6 -10 -11 -14 -11 -21 -1 -5
9 -15 4 -36 -18 -16 -16 -25 -30 -21 -30 5 0 -3 -9 -18 -21 -14 -11 -26 -26
-26 -34 0 -7 -7 -16 -16 -19 -10 -4 -14 -14 -11 -26 3 -11 1 -18 -4 -14 -5 3
-9 -2 -9 -10 0 -9 -6 -16 -14 -16 -18 0 -56 -77 -49 -98 4 -10 2 -13 -5 -8 -7
4 -12 1 -12 -8 0 -8 6 -17 13 -19 7 -3 5 -6 -5 -6 -10 -1 -18 5 -18 11 0 7
-11 -7 -24 -32 -13 -25 -20 -46 -16 -48 5 -2 0 -12 -10 -22 -12 -12 -17 -26
-13 -36 4 -11 2 -15 -4 -11 -12 8 -46 -80 -37 -94 3 -5 0 -9 -6 -9 -6 0 -10
-11 -8 -24 1 -13 -2 -29 -8 -37 -16 -20 -24 -58 -13 -65 5 -3 9 -15 8 -27 0
-21 -1 -21 -8 -2 -8 20 -8 20 -15 0 -16 -54 -32 -215 -22 -226 8 -9 7 -10 -3
-4 -11 6 -13 4 -8 -9 4 -10 2 -26 -4 -38 -8 -16 -7 -22 8 -34 17 -12 17 -13 1
-14 -11 0 -20 -11 -24 -27 -12 -54 -16 -63 -24 -58 -14 8 -41 -40 -34 -59 3
-9 1 -16 -6 -16 -6 0 -8 5 -5 10 13 21 -11 8 -28 -15 -12 -17 -14 -26 -5 -31
7 -5 8 -2 3 7 -6 11 -5 12 5 2 18 -16 -5 -46 -29 -38 -21 6 -66 -50 -63 -80 1
-14 -1 -16 -7 -6 -7 11 -11 10 -20 -6 -5 -11 -7 -24 -3 -28 4 -5 1 -5 -6 -1
-7 4 -15 0 -19 -11 -4 -10 -14 -25 -22 -33 -24 -22 -51 -76 -44 -84 4 -4 -1
-4 -11 0 -12 5 -17 2 -16 -7 4 -29 0 -45 -8 -31 -6 8 -18 -1 -41 -32 -18 -24
-32 -48 -31 -52 1 -4 -5 -11 -14 -16 -9 -5 -16 -21 -16 -36 0 -21 -2 -24 -10
-12 -9 14 -14 7 -11 -13 1 -5 -3 -6 -8 -2 -17 10 -34 -34 -20 -51 18 -22 -4
-42 -26 -24 -12 10 -15 10 -15 -1 0 -8 -13 -25 -29 -38 -16 -13 -27 -30 -24
-38 3 -8 -2 -13 -12 -13 -11 0 -15 -5 -12 -15 4 -8 1 -17 -5 -21 -7 -5 -8 -2
-4 7 4 8 -2 3 -13 -11 -11 -14 -21 -30 -21 -37 0 -6 -9 -15 -20 -18 -18 -6
-24 -17 -21 -37 0 -5 -4 -8 -10 -8 -5 0 -7 -4 -4 -10 3 -5 -1 -10 -9 -10 -17
0 -56 -51 -56 -74 0 -9 -7 -16 -15 -16 -9 0 -23 -16 -32 -35 -9 -19 -21 -35
-26 -35 -5 0 -7 -6 -4 -14 6 -14 -25 -50 -35 -41 -6 6 -58 -69 -58 -84 0 -5 6
-12 13 -15 6 -4 2 -4 -11 -2 -23 4 -62 -33 -62 -61 0 -8 -4 -11 -10 -8 -5 3
-10 1 -10 -6 0 -6 -7 -17 -17 -24 -9 -7 -17 -23 -19 -36 -4 -35 -4 -35 -12
-23 -5 8 -14 3 -27 -15 -19 -26 -19 -26 0 -12 11 8 8 2 -8 -13 -15 -15 -25
-31 -22 -37 4 -5 -1 -9 -9 -9 -18 0 -39 -34 -28 -45 4 -5 2 -5 -4 -2 -17 10
-178 -199 -167 -216 3 -6 1 -7 -5 -3 -6 4 -19 -6 -29 -21 -24 -37 -27 -42 -62
-83 -22 -27 -27 -40 -20 -53 7 -11 6 -17 -1 -17 -5 0 -10 5 -10 12 0 7 -8 2
-17 -10 -10 -13 -28 -35 -40 -50 -20 -24 -27 -42 -25 -63 1 -4 -4 -6 -11 -5
-7 0 -14 -3 -16 -9 -2 -5 -12 -16 -23 -23 -12 -9 -17 -21 -13 -35 2 -12 2 -16
-1 -10 -4 10 -9 10 -20 -1 -8 -8 -14 -17 -14 -21 0 -4 -7 -13 -16 -22 -8 -9
-13 -22 -10 -30 3 -8 1 -11 -4 -8 -13 8 -61 -47 -55 -63 3 -8 -4 -16 -15 -19
-18 -5 -24 -15 -21 -35 0 -5 -5 -7 -12 -5 -7 1 -11 -7 -10 -21 2 -13 -1 -21
-5 -18 -11 7 -62 -49 -62 -68 0 -9 -6 -16 -13 -16 -15 0 -42 -48 -38 -65 2 -5
-1 -7 -5 -3 -6 7 -63 -49 -64 -63 0 -3 -8 -15 -18 -27 -46 -54 -52 -63 -52
-72 0 -6 -4 -10 -8 -10 -15 0 -69 -84 -64 -99 2 -8 0 -11 -5 -8 -13 8 -45 -31
-37 -44 3 -6 -3 -13 -14 -16 -11 -3 -18 -11 -16 -18 3 -7 -5 -15 -18 -19 -19
-5 -20 -8 -8 -16 13 -8 13 -10 -2 -10 -17 0 -45 -37 -40 -52 1 -5 -4 -8 -11
-8 -8 0 -20 -11 -27 -25 -7 -14 -18 -25 -24 -25 -6 0 -4 -5 4 -10 13 -8 12
-10 -2 -10 -10 0 -18 -4 -18 -9 0 -5 -11 -23 -25 -39 -13 -16 -22 -32 -18 -36
3 -3 -1 -6 -10 -6 -9 0 -22 -10 -28 -22 -7 -13 -15 -25 -18 -28 -19 -16 -44
-52 -31 -45 13 7 -11 -22 -63 -77 -10 -11 -16 -26 -13 -33 3 -9 0 -12 -10 -8
-7 3 -14 0 -14 -6 0 -6 0 -13 0 -16 0 -2 -21 -26 -45 -52 -25 -26 -45 -53 -45
-60 0 -7 -3 -13 -7 -13 -5 0 -19 -17 -33 -37 -14 -20 -30 -41 -35 -47 -27 -29
-75 -95 -75 -104 0 -5 -6 -12 -14 -15 -8 -3 -17 -21 -22 -39 -4 -18 -9 -27
-12 -20 -3 9 -11 5 -23 -15 -20 -29 -25 -48 -11 -39 5 3 28 -15 52 -39 27 -27
49 -41 59 -38 12 4 13 3 3 -5 -20 -14 -16 -23 17 -40 17 -8 28 -19 25 -24 -3
-5 -13 -4 -22 4 -10 7 -6 0 7 -14 13 -15 27 -25 32 -23 4 3 6 -1 5 -7 -2 -16
-25 -56 -26 -45 0 11 -43 -13 -53 -29 -4 -7 -23 -16 -42 -20 -19 -3 -32 -11
-29 -16 4 -5 15 -8 25 -5 11 3 17 1 13 -4 -3 -5 -12 -9 -20 -9 -8 0 -14 -7
-14 -15 0 -8 -7 -15 -15 -15 -8 0 -15 6 -15 14 0 16 -41 29 -63 20 -8 -3 -18
-1 -22 5 -3 6 -12 11 -18 11 -7 0 -6 -4 3 -10 8 -5 10 -10 4 -10 -5 0 -15 5
-22 12 -7 7 -12 9 -12 5 0 -3 -12 5 -26 18 -15 14 -32 25 -39 25 -7 0 -20 11
-29 25 -15 22 -20 24 -39 14 -19 -11 -20 -10 -10 3 10 11 7 22 -14 54 -15 21
-31 42 -37 46 -6 4 -8 8 -4 8 3 0 -1 21 -9 48 -17 56 -17 301 1 319 14 14 5
24 -12 12 -9 -7 -7 -2 6 12 12 14 24 40 25 57 1 18 5 32 8 32 6 0 32 82 33
105 1 6 3 12 6 15 11 11 30 62 30 81 0 11 4 18 9 15 12 -8 45 69 38 88 -4 11
-1 13 10 9 11 -4 14 -2 11 8 -3 8 1 20 8 27 7 7 10 20 7 30 -3 9 -2 14 2 9 13
-11 43 41 39 69 -1 13 2 22 7 18 5 -3 6 -11 3 -17 -4 -7 -3 -8 2 -4 5 5 9 12
9 15 0 4 5 14 10 22 24 36 35 56 41 73 3 9 11 17 16 17 6 0 8 9 5 19 -3 13 -1
18 8 15 15 -6 30 30 20 46 -3 5 -3 15 1 22 5 8 9 6 14 -6 5 -15 8 -13 20 11 8
15 21 39 30 53 9 14 15 35 14 47 -1 13 3 23 8 23 6 0 8 -7 4 -15 -9 -26 1 -17
24 20 12 19 18 40 14 46 -5 8 -3 9 5 5 8 -5 14 0 18 13 3 12 10 21 15 21 5 0
6 10 3 23 -4 15 -3 18 3 8 7 -9 12 -10 16 -2 4 6 4 11 0 11 -4 0 1 7 12 16 10
8 14 13 8 10 -6 -3 -11 1 -11 8 0 8 6 12 13 9 8 -3 19 9 27 30 8 19 20 38 26
41 6 4 11 16 11 27 0 11 7 22 16 26 8 3 13 11 10 18 -3 8 2 16 10 19 9 3 13
10 10 15 -3 5 1 14 10 21 8 7 13 19 10 27 -3 8 -1 11 4 8 6 -3 11 0 12 7 0 7
2 18 3 23 0 6 11 28 23 51 12 24 19 50 15 63 -3 14 -1 21 9 21 17 0 41 81 31
106 -4 11 -2 15 4 11 13 -8 30 73 43 208 14 147 13 211 -5 229 -9 8 -11 17 -6
21 6 3 8 22 6 43 -1 20 -3 47 -4 60 -1 15 -5 21 -13 16 -8 -5 -9 0 -5 15 4 17
2 21 -9 17 -8 -3 -14 1 -14 10 0 9 6 14 13 11 10 -4 13 2 9 19 -2 13 -9 21
-15 17 -7 -4 -8 0 -4 11 7 18 -20 89 -32 82 -3 -2 -7 6 -7 17 -4 46 -23 99
-35 92 -5 -3 -6 1 -3 9 3 9 1 16 -6 16 -6 0 -9 4 -6 9 3 5 -3 20 -14 34 -11
14 -20 32 -20 41 0 9 -9 25 -20 36 -11 11 -20 24 -20 29 0 5 -17 31 -39 58
-21 27 -42 59 -45 71 -4 12 -15 22 -24 23 -9 0 -12 3 -5 5 7 3 0 16 -19 35
-17 16 -27 29 -23 29 5 0 0 6 -10 14 -11 8 -23 12 -27 10 -5 -3 -8 4 -8 15 0
12 -3 20 -8 20 -20 -3 -31 2 -26 14 2 7 -6 23 -18 34 -13 12 -29 29 -36 38 -7
8 -17 13 -23 10 -5 -4 -9 -1 -9 6 0 15 -60 70 -70 64 -4 -3 -10 4 -13 15 -5
20 -27 28 -27 10 0 -5 -5 -10 -11 -10 -8 0 -8 4 0 14 9 10 3 19 -27 40 -23 15
-46 24 -55 20 -20 -7 -54 10 -38 20 6 4 11 2 11 -3 0 -6 6 -11 13 -11 18 1
-45 50 -65 50 -9 0 -29 11 -44 25 -24 22 -43 30 -66 26 -5 0 -8 3 -8 9 0 5
-13 7 -29 4 -16 -3 -31 -1 -35 4 -4 6 3 8 16 6 13 -2 5 4 -17 15 -22 10 -43
17 -47 15 -4 -3 -9 0 -13 6 -3 5 -14 10 -24 10 -10 0 -47 9 -81 20 -59 19 -64
19 -81 4 -10 -9 -16 -21 -13 -25 3 -5 0 -9 -5 -9 -6 0 -11 -5 -11 -11 0 -5 4
-7 10 -4 14 9 12 -1 -6 -37 -14 -26 -14 -35 -4 -52 9 -15 10 -21 1 -24 -15 -5
-14 -18 2 -20 43 -6 57 -9 63 -15 4 -4 20 -7 36 -7 15 0 28 -5 28 -10 0 -7 6
-7 20 0 16 9 20 8 20 -5 0 -9 4 -14 9 -10 5 3 12 1 16 -5 3 -5 17 -10 29 -10
13 0 29 -6 35 -14 6 -7 36 -21 66 -31 30 -9 53 -21 49 -26 -3 -5 1 -9 10 -9 8
0 16 -4 18 -9 2 -5 10 -11 18 -13 8 -2 26 -13 40 -26 14 -12 34 -25 45 -28 11
-4 35 -23 53 -43 18 -20 31 -29 29 -21 -2 8 -2 12 0 8 3 -5 12 -8 21 -8 13 0
14 -2 4 -9 -10 -6 -10 -10 2 -20 8 -7 23 -14 33 -15 10 -2 18 -10 18 -18 0
-19 32 -51 44 -44 5 3 14 -1 21 -9 11 -13 10 -15 -6 -9 -17 5 -17 4 -3 -8 9
-7 16 -17 17 -23 0 -5 5 -11 11 -13 6 -2 8 3 5 12 -3 9 -1 16 6 16 6 0 10 -10
8 -23 -3 -26 45 -107 64 -107 6 0 2 9 -11 21 -24 23 -23 33 2 24 18 -7 29 -42
16 -51 -5 -3 9 -32 32 -65 29 -43 45 -59 56 -55 13 5 14 4 4 -8 -9 -11 -4 -30
28 -93 23 -43 45 -84 51 -90 6 -7 7 -13 3 -13 -4 0 -2 -5 4 -11 6 -6 9 -18 6
-25 -6 -16 13 -19 22 -4 4 6 11 7 17 4 7 -4 5 -10 -6 -16 -21 -12 -21 -42 0
-59 12 -10 15 -24 10 -61 -4 -26 -3 -48 1 -48 17 0 13 -215 -6 -325 -11 -67
-14 -112 -9 -116 5 -3 3 -9 -4 -12 -17 -6 -42 -83 -32 -99 4 -6 3 -8 -3 -5 -5
3 -15 -10 -21 -29 l-11 -36 22 19 c12 10 7 1 -11 -20 -26 -30 -30 -42 -22 -57
15 -27 12 -40 -7 -40 -14 0 -15 2 -4 9 8 5 10 14 6 21 -6 9 -12 5 -22 -14 -8
-14 -11 -31 -8 -36 3 -6 1 -10 -5 -10 -6 0 -9 -4 -6 -8 3 -5 -4 -16 -15 -25
-14 -12 -18 -25 -14 -45 3 -15 2 -21 -1 -14 -8 17 -24 15 -24 -3 0 -9 -5 -21
-10 -28 -33 -39 -59 -89 -54 -104 5 -15 4 -16 -5 -3 -10 14 -12 13 -15 -10 0
-6 -7 -15 -15 -19 -8 -5 -10 -14 -6 -21 5 -8 4 -11 -3 -6 -12 7 -42 -42 -42
-69 0 -9 -4 -14 -9 -11 -9 6 -26 -22 -22 -37 1 -5 -3 -6 -9 -2 -5 3 -13 -2
-17 -12 -4 -10 -17 -32 -30 -49 -12 -17 -20 -34 -16 -37 3 -4 1 -7 -6 -7 -7 0
-10 -4 -6 -9 3 -6 -1 -13 -9 -18 -14 -8 -16 -12 -16 -34 0 -5 -4 -8 -9 -4 -6
3 -8 -4 -6 -15 2 -11 -4 -25 -16 -33 -10 -8 -16 -17 -12 -20 3 -4 1 -7 -5 -7
-7 0 -11 -3 -9 -8 1 -4 -8 -17 -21 -30 -23 -23 -31 -49 -11 -36 7 4 10 2 8 -5
-3 -7 -8 -11 -12 -9 -13 5 -69 -94 -72 -124 -1 -16 -6 -32 -10 -36 -5 -4 -5 0
-1 8 4 8 0 6 -8 -5 -15 -18 -15 -20 4 -27 26 -10 26 -38 0 -38 -12 0 -20 7
-20 18 -1 16 -1 16 -10 0 -6 -9 -11 -28 -12 -42 -1 -14 -4 -23 -7 -20 -3 2
-15 -21 -28 -53 -18 -44 -20 -59 -11 -65 9 -5 8 -8 -6 -8 -14 0 -17 -5 -12
-25 4 -14 2 -25 -3 -25 -13 0 -30 -57 -37 -120 -3 -29 -8 -58 -12 -64 -4 -6
-8 -29 -10 -51 -11 -160 -13 -207 -5 -202 4 3 9 -14 9 -36 2 -47 30 -137 47
-152 7 -5 12 -16 12 -24 0 -8 15 -19 33 -23 31 -8 39 -18 25 -32 -16 -16 -9
-38 23 -66 19 -16 39 -30 44 -30 6 0 10 -6 10 -14 0 -23 24 -37 39 -23 10 9
11 9 6 -5 -4 -11 1 -21 17 -29 30 -17 50 -20 42 -7 -4 6 -1 9 7 6 8 -2 18 -14
24 -26 5 -12 16 -20 23 -17 7 3 10 0 7 -5 -3 -6 1 -10 9 -10 9 0 16 4 16 8 0
10 25 9 59 -2 18 -6 21 -10 10 -17 -10 -7 -3 -9 21 -7 22 2 34 8 32 16 -1 9 2
10 16 1 14 -9 34 -6 91 11 65 19 71 23 59 38 -11 15 -11 16 3 4 13 -10 22 -10
43 -1 14 7 26 18 26 25 0 6 7 15 16 18 12 5 14 3 8 -7 -5 -7 -2 -5 6 4 8 9 20
25 26 35 10 17 13 17 29 4 13 -10 16 -11 11 -2 -12 21 24 11 62 -16 18 -13 39
-21 47 -18 8 3 14 2 13 -2 -3 -13 20 -58 36 -71 10 -8 26 -11 43 -7 16 4 23 3
18 -1 -17 -13 -12 -26 27 -64 20 -21 34 -40 31 -43 -4 -3 -1 -6 5 -6 7 0 21 9
32 20 11 11 25 20 31 20 5 0 8 4 5 9 -3 5 5 12 19 15 15 4 22 11 19 20 -3 8 0
17 7 22 8 4 10 3 5 -4 -12 -21 8 -13 39 14 17 14 29 30 28 35 -2 4 4 6 12 2
10 -3 28 8 48 29 17 19 40 37 50 41 12 5 16 13 12 26 -3 11 0 21 9 24 10 4 12
0 9 -16 -3 -13 -1 -18 4 -11 4 6 18 16 31 23 12 6 22 19 22 28 0 9 3 13 6 10
11 -10 45 13 38 25 -4 7 -3 8 5 4 6 -4 25 7 44 26 17 18 37 31 44 30 15 -3 35
32 25 44 -4 5 0 3 8 -3 11 -8 18 -8 27 2 6 7 9 16 5 19 -3 4 2 4 12 0 13 -5
17 -4 12 4 -3 6 3 14 16 18 13 3 29 11 36 17 11 9 11 13 -5 19 -13 6 -11 7 9
3 20 -4 31 1 48 23 12 15 18 20 14 12 -7 -13 -5 -13 9 -1 9 7 14 18 10 24 -4
6 0 8 10 4 10 -3 17 -2 17 3 0 5 8 11 18 15 9 3 35 22 57 41 22 20 34 33 27
29 -6 -3 -12 -1 -12 5 0 7 7 9 16 6 22 -9 50 14 32 25 -9 6 -6 8 8 7 20 -2
114 58 114 73 0 4 -6 10 -12 13 -7 3 -3 3 10 0 15 -4 24 0 28 10 3 9 12 16 18
16 7 0 21 7 32 16 10 8 14 13 8 10 -6 -3 -11 1 -11 9 0 10 5 11 19 4 17 -9 22
-5 19 14 0 4 7 7 18 7 25 0 47 26 29 33 -8 3 -5 6 6 6 29 1 83 39 89 62 4 15
11 20 22 15 10 -4 19 2 25 17 5 12 9 16 9 8 1 -9 10 -4 26 13 14 15 25 23 25
19 1 -4 8 1 18 12 9 11 29 26 44 34 22 11 25 17 17 28 -12 13 -6 17 24 14 9
-1 17 3 17 10 0 7 3 9 6 6 10 -9 64 32 64 48 0 8 6 12 13 9 7 -2 26 11 42 30
16 20 34 32 42 29 9 -4 16 3 20 17 4 16 8 18 14 8 7 -10 9 -9 9 5 0 10 4 16 9
13 13 -8 62 34 54 47 -4 7 0 8 11 4 14 -5 17 -3 13 8 -4 8 -1 17 5 21 7 4 8 3
4 -4 -9 -15 -1 -15 25 -2 10 6 19 18 19 26 0 9 6 14 13 11 15 -5 59 27 50 37
-4 3 1 6 11 6 10 0 14 5 10 12 -4 7 -3 8 5 4 6 -4 19 -2 27 5 12 10 12 14 2
20 -9 6 -4 9 13 9 28 0 54 22 41 35 -4 5 -1 5 6 1 14 -8 91 43 92 61 0 6 5 15
12 19 7 5 8 3 3 -7 -7 -11 -5 -11 11 1 40 31 45 38 31 43 -6 3 0 6 14 6 33 1
42 10 26 29 -10 13 -9 15 12 9 26 -6 75 19 65 34 -3 5 4 9 15 9 10 0 21 3 23
8 2 4 27 25 56 46 28 21 50 42 47 46 -3 5 0 12 6 16 8 4 9 3 5 -4 -14 -24 13
-11 41 18 15 16 33 30 39 30 6 0 18 8 25 17 8 10 9 14 2 10 -6 -4 -15 -2 -19
5 -4 7 -4 10 1 6 9 -9 62 17 92 45 12 11 33 25 45 32 13 6 22 17 20 24 -1 7 2
10 8 6 5 -3 10 -1 10 4 0 6 3 10 8 9 13 -2 42 14 42 24 0 5 -5 6 -12 2 -7 -4
-8 -3 -4 4 4 6 14 8 23 5 12 -5 14 -3 8 7 -5 9 -4 11 4 6 6 -4 18 -1 26 8 11
11 12 16 2 19 -6 2 -2 2 10 0 12 -1 26 3 30 9 4 7 17 18 28 25 11 6 19 16 17
23 -1 6 2 9 7 6 5 -4 16 1 24 9 9 8 19 15 24 15 15 0 83 67 75 75 -4 4 -2 5 5
1 15 -8 92 44 93 63 0 8 3 11 6 8 4 -4 20 3 36 15 23 16 27 23 16 30 -10 8 -9
9 4 5 17 -6 62 25 52 36 -3 3 3 4 13 3 12 0 17 5 17 17 -1 13 3 16 16 12 11
-3 29 5 48 22 16 16 38 33 48 40 11 6 18 16 17 22 -2 6 3 10 10 8 6 -1 11 4
10 10 -2 7 0 12 5 11 13 -4 52 13 52 23 0 5 11 14 25 19 14 5 28 16 31 25 3 8
10 12 15 9 5 -3 9 -1 9 5 0 5 -6 12 -12 15 -7 3 -3 3 9 0 14 -3 25 1 32 13 6
10 11 14 11 10 0 -4 16 4 35 19 19 14 32 31 28 37 -3 5 -2 7 4 4 5 -3 20 1 32
10 18 12 20 17 10 24 -10 6 -8 9 9 9 12 0 22 5 22 12 0 6 3 8 6 5 4 -3 25 9
47 28 22 19 45 34 51 33 28 -5 238 15 227 22 -9 5 -3 9 16 13 15 3 31 0 35 -6
5 -8 10 -8 20 0 7 6 24 11 38 12 42 1 65 8 62 20 -1 6 2 11 8 11 5 0 10 -5 10
-10 0 -7 6 -7 18 -1 9 5 20 9 25 10 4 1 8 1 10 2 1 0 16 3 32 5 17 3 32 9 33
15 2 5 8 7 13 3 5 -3 9 2 9 12 0 13 3 14 14 5 10 -8 16 -9 21 -1 3 6 11 8 16
5 5 -4 9 -1 9 4 0 6 3 10 8 10 20 -3 25 2 12 12 -12 8 -9 10 12 6 15 -2 25 -1
23 3 -3 4 4 10 15 13 11 3 18 1 14 -4 -3 -5 2 -6 10 -3 9 3 16 10 16 15 0 5 3
8 8 7 4 -1 18 2 30 6 19 6 22 13 18 31 -5 19 -2 23 14 22 13 -1 16 -5 10 -11
-6 -6 -10 -15 -10 -20 0 -7 3 -8 8 -1 4 6 19 16 34 24 15 8 25 19 21 24 -3 6
-1 7 5 3 18 -11 37 4 21 16 -11 8 -10 9 4 4 25 -8 47 3 47 25 0 10 5 19 11 19
5 0 7 -6 3 -12 -10 -17 22 8 59 44 15 16 31 28 36 28 4 0 25 15 45 34 36 34
47 54 24 40 -8 -4 -10 -3 -5 2 5 5 14 9 20 9 7 1 11 6 10 13 -2 6 4 9 12 6 13
-6 20 6 16 29 0 4 5 7 12 7 8 0 24 12 38 27 13 14 18 23 12 19 -19 -11 -16 9
4 25 11 10 14 10 9 2 -4 -7 -5 -13 -3 -13 11 0 107 139 107 154 0 9 4 16 10
16 9 0 27 32 79 140 12 25 26 53 32 64 6 10 12 34 14 53 2 19 11 40 21 47 9 7
14 18 10 24 -3 5 -2 12 4 14 11 3 41 124 44 173 0 17 5 37 10 45 6 8 10 123 9
260 0 192 -4 255 -16 293 -11 33 -12 47 -4 47 7 0 4 7 -6 14 -10 8 -17 18 -16
22 5 28 -2 54 -13 48 -6 -4 -8 -3 -5 3 12 18 -24 112 -45 119 -10 3 -15 10
-12 16 4 6 10 5 16 -3 7 -11 8 -9 4 4 -3 10 -6 21 -6 23 0 3 -5 2 -12 -2 -8
-5 -9 0 -5 16 4 16 1 23 -14 27 -10 3 -19 10 -19 15 0 5 5 6 12 2 6 -4 9 -3 6
2 -2 5 -12 26 -22 46 -9 20 -22 40 -29 44 -7 5 -7 1 2 -9 12 -15 12 -17 -3
-11 -17 7 -22 34 -6 34 6 0 5 8 -2 20 -7 11 -18 18 -25 16 -7 -3 -15 0 -19 6
-4 6 -3 8 4 4 6 -3 13 -2 17 4 3 5 1 10 -5 10 -6 0 -8 5 -5 10 3 6 -1 10 -9
10 -17 0 -46 26 -46 42 0 6 9 0 20 -13 l20 -24 -16 33 c-9 18 -27 37 -40 42
-13 5 -24 12 -24 15 0 4 5 3 10 0 22 -13 8 14 -24 48 -18 20 -36 43 -40 52 -3
9 -12 15 -19 13 -7 -2 -25 7 -41 20 -16 12 -23 22 -16 22 6 0 21 -10 31 -22
l20 -23 -15 25 c-18 29 -107 116 -120 117 -5 1 -13 8 -18 17 -5 9 -14 16 -19
16 -6 0 -7 -4 -4 -10 4 -6 -1 -7 -11 -3 -12 4 -13 8 -6 11 24 8 -76 91 -100
84 -5 -1 -8 2 -8 7 0 10 -56 48 -80 53 -8 2 -21 9 -28 16 -8 7 -18 9 -24 6 -7
-4 -8 -2 -4 4 6 11 -6 16 -26 13 -5 0 -8 3 -8 9 0 5 -19 15 -42 22 -24 6 -45
16 -48 20 -3 4 -15 9 -25 11 -11 2 -30 9 -43 15 -12 7 -27 10 -32 7 -6 -3 -10
-2 -10 2 0 14 -133 45 -154 37 -14 -5 -17 -4 -12 5 6 9 -1 11 -29 5 -27 -5
-40 -3 -46 7 -6 11 -48 14 -196 15 -103 1 -201 0 -218 -3z m396 -21 c-7 -2
-18 1 -23 6 -8 8 -4 9 13 5 13 -4 18 -8 10 -11z m-414 2 c-3 -3 -12 -4 -19 -1
-8 3 -5 6 6 6 11 1 17 -2 13 -5z m603 -39 c0 -8 -4 -15 -10 -15 -5 0 -7 7 -4
15 4 8 8 15 10 15 2 0 4 -7 4 -15z m-904 -37 c4 -6 3 -8 -4 -4 -5 3 -12 0 -15
-6 -2 -7 -8 -10 -12 -6 -8 8 2 28 15 28 5 0 12 -5 16 -12z m-156 -58 c0 -10
-52 -40 -70 -40 -6 0 -8 5 -5 10 4 6 10 8 13 6 4 -2 19 4 32 15 29 22 30 22
30 9z m1460 -70 c0 -5 -2 -10 -4 -10 -3 0 -8 5 -11 10 -3 6 -1 10 4 10 6 0 11
-4 11 -10z m-1620 -30 c0 -5 -4 -10 -10 -10 -5 0 -10 5 -10 10 0 6 5 10 10 10
6 0 10 -4 10 -10z m1727 -52 c-3 -8 -6 -5 -6 6 -1 11 2 17 5 13 3 -3 4 -12 1
-19z m120 -110 c-3 -8 -6 -5 -6 6 -1 11 2 17 5 13 3 -3 4 -12 1 -19z m-2180
-130 c-3 -8 -6 -5 -6 6 -1 11 2 17 5 13 3 -3 4 -12 1 -19z m-27 -34 c0 -8 -19
-13 -24 -6 -3 5 1 9 9 9 8 0 15 -2 15 -3z m-125 -153 c3 -5 2 -12 -3 -15 -5
-3 -9 1 -9 9 0 17 3 19 12 6z m2780 -1271 c3 -5 1 -10 -4 -10 -6 0 -11 5 -11
10 0 6 2 10 4 10 3 0 8 -4 11 -10z m-6007 -125 c-3 -3 -9 2 -12 12 -6 14 -5
15 5 6 7 -7 10 -15 7 -18z m5959 -17 c-3 -8 -6 -5 -6 6 -1 11 2 17 5 13 3 -3
4 -12 1 -19z m-6172 -26 c-3 -3 -11 0 -18 7 -9 10 -8 11 6 5 10 -3 15 -9 12
-12z m2545 -292 c0 -5 -4 -10 -10 -10 -5 0 -10 5 -10 10 0 6 5 10 10 10 6 0
10 -4 10 -10z m-20 -34 c0 -11 -19 -15 -25 -6 -3 5 1 10 9 10 9 0 16 -2 16 -4z
m-2072 -61 c-8 -19 -14 -22 -20 -13 -7 12 -12 4 -9 -14 0 -5 -3 -8 -9 -8 -13
0 -13 17 1 25 6 4 8 12 6 19 -3 7 5 13 19 14 22 2 23 0 12 -23z m5457 5 c3 -5
1 -10 -4 -10 -6 0 -11 5 -11 10 0 6 2 10 4 10 3 0 8 -4 11 -10z m-5422 -67
c-7 -2 -19 -2 -25 0 -7 3 -2 5 12 5 14 0 19 -2 13 -5z m37 -23 c0 -5 -9 -10
-20 -10 -11 0 -20 5 -20 10 0 6 9 10 20 10 11 0 20 -4 20 -10z m100 -11 c0 -5
-7 -9 -15 -9 -9 0 -12 6 -9 15 6 15 24 11 24 -6z m1774 -11 c-3 -4 -11 -5 -19
-1 -21 7 -19 12 4 10 11 0 18 -5 15 -9z m-34 -38 c0 -5 -5 -10 -11 -10 -5 0
-7 5 -4 10 3 6 8 10 11 10 2 0 4 -4 4 -10z m-1875 -19 c-3 -6 -11 -8 -17 -5
-6 4 -5 9 3 15 16 10 23 4 14 -10z m283 -472 c-3 -33 -4 -33 -8 8 -3 23 -2 39
3 34 5 -5 7 -24 5 -42z m-171 -96 c-2 -16 -4 -3 -4 27 0 30 2 43 4 28 2 -16 2
-40 0 -55z m1318 -13 c-5 -8 -11 -8 -17 -2 -6 6 -7 16 -3 22 5 8 11 8 17 2 6
-6 7 -16 3 -22z m-38 -25 c0 -8 -6 -16 -14 -19 -16 -7 -17 6 -1 22 15 15 15
15 15 -3z m-1270 -40 c0 -8 -4 -15 -9 -15 -10 0 -11 14 -1 23 9 10 10 9 10 -8z
m80 -297 c-3 -7 -5 -2 -5 12 0 14 2 19 5 13 2 -7 2 -19 0 -25z m-177 -118 c0
-5 -2 -10 -4 -10 -3 0 -8 5 -11 10 -3 6 -1 10 4 10 6 0 11 -4 11 -10z m970
-74 c0 -2 -8 -10 -17 -17 -16 -13 -17 -12 -4 4 13 16 21 21 21 13z m-1080 -85
c0 -6 -4 -13 -10 -16 -5 -3 -10 1 -10 9 0 9 5 16 10 16 6 0 10 -4 10 -9z m137
-57 c-3 -3 -12 -4 -19 -1 -8 3 -5 6 6 6 11 1 17 -2 13 -5z m703 -184 c0 -5 -7
-10 -16 -10 -8 0 -12 5 -9 10 3 6 10 10 16 10 5 0 9 -4 9 -10z m-46 -81 c-3
-5 -10 -7 -15 -3 -5 3 -7 10 -3 15 3 5 10 7 15 3 5 -3 7 -10 3 -15z m-44 -34
c-7 -9 -15 -13 -17 -11 -7 7 7 26 19 26 6 0 6 -6 -2 -15z m1800 -140 c0 -2 -7
-8 -15 -15 -12 -10 -15 -10 -15 2 0 8 7 15 15 15 8 0 15 -1 15 -2z m-1900 -19
c0 -11 -19 -15 -25 -6 -3 5 1 10 9 10 9 0 16 -2 16 -4z m1770 -60 c0 -3 -4 -8
-10 -11 -5 -3 -10 -1 -10 4 0 6 5 11 10 11 6 0 10 -2 10 -4z m-2680 -136 c0
-5 -4 -10 -10 -10 -5 0 -10 5 -10 10 0 6 5 10 10 10 6 0 10 -4 10 -10z m-183
-16 c-3 -3 -12 -4 -19 -1 -8 3 -5 6 6 6 11 1 17 -2 13 -5z m2663 -19 c-7 -9
-15 -13 -19 -10 -3 3 1 10 9 15 21 14 24 12 10 -5z m-2530 -35 c0 -5 -2 -10
-4 -10 -3 0 -8 5 -11 10 -3 6 -1 10 4 10 6 0 11 -4 11 -10z m710 -56 c0 -8
-19 -13 -24 -6 -3 5 1 9 9 9 8 0 15 -2 15 -3z m-736 -38 c-5 -13 -9 -14 -21
-4 -13 10 -13 13 4 19 23 8 25 6 17 -15z m2351 -26 c3 -5 1 -10 -4 -10 -6 0
-11 5 -11 10 0 6 2 10 4 10 3 0 8 -4 11 -10z m-2575 -60 c0 -5 -5 -10 -11 -10
-5 0 -7 5 -4 10 3 6 8 10 11 10 2 0 4 -4 4 -10z m830 -37 c-8 -3 -22 -11 -30
-17 -13 -10 -13 -9 -1 7 7 9 21 17 30 16 13 0 14 -1 1 -6z m-693 -75 c-3 -8
-6 -5 -6 6 -1 11 2 17 5 13 3 -3 4 -12 1 -19z m575 -60 c-15 -15 -16 -31 0
-22 7 4 8 3 4 -4 -4 -6 -13 -9 -22 -5 -13 5 -13 8 2 24 9 11 20 19 23 19 3 0
0 -5 -7 -12z m-612 -451 c0 -5 -4 -5 -10 -2 -5 3 -10 14 -10 23 0 15 2 15 10
2 5 -8 10 -19 10 -23z m1570 -13 c0 -2 -7 -4 -15 -4 -8 0 -15 4 -15 10 0 5 7
7 15 4 8 -4 15 -8 15 -10z m-1033 -106 c-3 -8 -6 -5 -6 6 -1 11 2 17 5 13 3
-3 4 -12 1 -19z m-581 -71 c8 3 14 -1 14 -11 0 -9 -4 -16 -10 -16 -5 0 -10 -4
-10 -10 0 -5 9 -10 20 -10 11 0 20 -4 20 -9 0 -20 -17 -19 -43 2 -21 18 -25
27 -20 52 5 19 8 24 11 13 2 -10 9 -15 18 -11z m51 -109 c-3 -8 -6 -5 -6 6 -1
11 2 17 5 13 3 -3 4 -12 1 -19z m800 -65 c0 -15 -19 -12 -24 3 -2 6 3 11 10
11 8 0 14 -6 14 -14z m268 -3 c-3 -5 -11 -10 -16 -10 -6 0 -7 5 -4 10 3 6 11
10 16 10 6 0 7 -4 4 -10z m-698 -26 c-3 -3 -12 -4 -19 -1 -8 3 -5 6 6 6 11 1
17 -2 13 -5z"/>
<path d="M3167 4134 c6 -15 23 -19 23 -5 0 5 -7 11 -14 14 -10 4 -13 1 -9 -9z"/>
<path d="M828 945 c11 -21 62 -73 62 -62 0 3 -16 23 -36 44 -20 21 -31 29 -26
18z"/>
<path d="M336 725 c4 -8 10 -12 15 -9 11 6 2 24 -11 24 -5 0 -7 -7 -4 -15z"/>
<path d="M790 680 c20 -13 33 -13 25 0 -3 6 -14 10 -23 10 -15 0 -15 -2 -2
-10z"/>
<path d="M1060 605 c0 -8 2 -15 4 -15 2 0 6 7 10 15 3 8 1 15 -4 15 -6 0 -10
-7 -10 -15z"/>
<path d="M668 483 c7 -3 16 -2 19 1 4 3 -2 6 -13 5 -11 0 -14 -3 -6 -6z"/>
</g>
</svg>