<?xml version="1.0"?>
<svg width="944" height="1024" xmlns="http://www.w3.org/2000/svg" xmlns:svg="http://www.w3.org/2000/svg" enable-background="new 0 0 944 1024" version="1.1" xml:space="preserve">
 <g class="layer">
  <title>Layer 1</title>
  <path d="m479.65,356.66c3.04,-3.52 5.85,-6.78 9.57,-11.11c8.02,28.54 21.4,52.91 41.62,73.18c20.27,20.32 44.6,33.89 72.53,41.69c-1.55,3.37 -3.96,4.92 -6.04,6.7c-27.06,23.2 -54.14,46.36 -81.23,69.52c-25.32,21.64 -50.66,43.26 -75.98,64.9c-34.18,29.22 -68.34,58.45 -102.51,87.67c-16.95,14.51 -33.83,29.11 -50.87,43.52c-13.01,11.02 -27.6,10.44 -39.86,-1.51c-9.66,-9.43 -19.2,-18.98 -28.64,-28.62c-11.13,-11.35 -11.32,-27.05 -0.93,-39.21c40.59,-47.47 81.08,-95.04 121.68,-142.51c39.52,-46.2 79.15,-92.31 118.72,-138.47c7.26,-8.47 14.47,-16.98 21.94,-25.75m-30.61,159.67c5.47,0.56 10.22,-1.1 14.12,-4.91c6.67,-6.51 13.28,-13.08 19.83,-19.71c7.46,-7.54 7.9,-17.95 1.18,-25.02c-6.98,-7.34 -17.62,-7.61 -25.46,-0.26c-6.68,6.26 -13.18,12.73 -19.41,19.43c-10.33,11.11 -5.72,26.33 9.74,30.47z" fill="#2B8BE1" id="svg_2" opacity="1"/>
  <path d="m778.54,350.39c-8.24,25.57 -22.35,46.79 -42.22,64.24c-2.02,1.77 -4,2.74 -6.74,2.39c-86.33,-11.09 -146.95,-56.53 -181.68,-136.3c-8.43,-19.37 -12.84,-39.86 -14.86,-60.89c-0.43,-4.46 2.59,-6.72 4.99,-9.26c19.85,-20.98 43.67,-35.09 71.9,-41.88c56.9,-13.7 118.48,10.23 150.96,58.95c17.09,25.63 24.92,53.95 24.2,84.58c-0.3,12.83 -2.6,25.48 -6.55,38.17z" fill="#2B8BE1" id="svg_3" opacity="1"/>
  <path d="m697.59,438.73c-55.71,21.28 -106.25,12.75 -150.68,-26.22c-28.1,-24.64 -43.08,-56.67 -46.25,-94.04c-2.27,-26.76 3.29,-51.97 15.06,-75.94c0.66,-1.35 1.37,-2.67 2.14,-3.96c0.23,-0.38 0.73,-0.61 1.36,-1.11c23.63,105.1 87.76,169.53 193.83,193.43c-4.85,3.66 -10.14,5.4 -15.46,7.84z" fill="#2B8BE1" id="svg_4" opacity="1"/>
  <path d="m224.21,731.79c8.52,8.77 8.38,6.31 0.33,14.45c-9.95,10.09 -20.09,19.98 -29.96,30.15c-2.91,3 -4.78,2.98 -7.58,-0.17c-4.31,-4.85 -9.04,-9.34 -13.77,-13.79c-2.28,-2.14 -2.75,-3.71 -0.31,-6.12c11.74,-11.6 23.37,-23.29 34.99,-35.01c2.06,-2.08 3.74,-2.3 5.84,-0.05c3.3,3.52 6.79,6.87 10.46,10.54z" fill="#2B8BE1" id="svg_5" opacity="1"/>
 </g>
</svg>